<mxfile host="65bd71144e">
    <diagram id="JolWbQ5U83cawqF4ij7y" name="Page-1">
        <mxGraphModel dx="1078" dy="617" grid="1" gridSize="10" guides="1" tooltips="1" connect="1" arrows="1" fold="1" page="1" pageScale="1" pageWidth="850" pageHeight="1100" math="0" shadow="0">
            <root>
                <mxCell id="0"/>
                <mxCell id="1" parent="0"/>
                <mxCell id="26" style="edgeStyle=none;html=1;entryX=0;entryY=0.5;entryDx=0;entryDy=0;entryPerimeter=0;" parent="1" source="13" target="23" edge="1">
                    <mxGeometry relative="1" as="geometry"/>
                </mxCell>
                <mxCell id="13" value="Customer" style="shape=umlActor;html=1;verticalLabelPosition=bottom;verticalAlign=top;align=center;" parent="1" vertex="1">
                    <mxGeometry x="70" y="320" width="40" height="60" as="geometry"/>
                </mxCell>
                <mxCell id="23" value="" style="html=1;shape=mxgraph.sysml.useCaseExtPt;whiteSpace=wrap;align=center;" parent="1" vertex="1">
                    <mxGeometry x="240" y="130" width="160" height="80" as="geometry"/>
                </mxCell>
                <mxCell id="24" value="Checkout" style="resizable=0;html=1;verticalAlign=middle;align=center;labelBackgroundColor=none;fontStyle=1;" parent="23" connectable="0" vertex="1">
                    <mxGeometry x="80" y="17" as="geometry"/>
                </mxCell>
                <mxCell id="27" value="&lt;br&gt;" style="html=1;shape=mxgraph.sysml.useCaseExtPt;whiteSpace=wrap;align=center;" parent="1" vertex="1">
                    <mxGeometry x="400" y="310" width="160" height="80" as="geometry"/>
                </mxCell>
                <mxCell id="28" value="&lt;span style=&quot;font-weight: 400&quot;&gt;Generate order&lt;/span&gt;" style="resizable=0;html=1;verticalAlign=middle;align=center;labelBackgroundColor=none;fontStyle=1;" parent="27" connectable="0" vertex="1">
                    <mxGeometry x="80" y="17" as="geometry"/>
                </mxCell>
                <mxCell id="33" value="&lt;br&gt;" style="html=1;shape=mxgraph.sysml.useCaseExtPt;whiteSpace=wrap;align=center;" parent="1" vertex="1">
                    <mxGeometry x="640" y="10" width="160" height="80" as="geometry"/>
                </mxCell>
                <mxCell id="34" value="Authenticate User" style="resizable=0;html=1;verticalAlign=middle;align=center;labelBackgroundColor=none;fontStyle=1;" parent="33" connectable="0" vertex="1">
                    <mxGeometry x="80" y="17" as="geometry"/>
                </mxCell>
                <mxCell id="53" value="" style="group" vertex="1" connectable="0" parent="1">
                    <mxGeometry x="650" y="260" width="160" height="80" as="geometry"/>
                </mxCell>
                <mxCell id="51" value="&lt;br&gt;" style="html=1;shape=mxgraph.sysml.useCaseExtPt;whiteSpace=wrap;align=center;container=0;" vertex="1" parent="53">
                    <mxGeometry width="160" height="80" as="geometry"/>
                </mxCell>
                <mxCell id="52" value="Payment Processing" style="resizable=0;html=1;verticalAlign=middle;align=center;labelBackgroundColor=none;fontStyle=1;" connectable="0" vertex="1" parent="53">
                    <mxGeometry x="80" y="17" as="geometry"/>
                </mxCell>
                <mxCell id="55" value="&lt;br&gt;" style="html=1;shape=mxgraph.sysml.useCaseExtPt;whiteSpace=wrap;align=center;container=0;" vertex="1" parent="1">
                    <mxGeometry x="660" y="420" width="160" height="80" as="geometry"/>
                </mxCell>
                <mxCell id="57" value="" style="group" vertex="1" connectable="0" parent="1">
                    <mxGeometry x="721" y="434" width="11" height="81" as="geometry"/>
                </mxCell>
                <mxCell id="42" value="" style="resizable=0;html=1;verticalAlign=middle;align=center;labelBackgroundColor=none;fontStyle=1;" connectable="0" vertex="1" parent="57">
                    <mxGeometry x="-1" y="83" as="geometry">
                        <mxPoint x="1" y="-2" as="offset"/>
                    </mxGeometry>
                </mxCell>
                <mxCell id="56" value="Delivery Agent" style="resizable=0;html=1;verticalAlign=middle;align=center;labelBackgroundColor=none;fontStyle=1;" connectable="0" vertex="1" parent="57">
                    <mxGeometry x="19" y="3" as="geometry">
                        <mxPoint x="-8" y="-3" as="offset"/>
                    </mxGeometry>
                </mxCell>
                <mxCell id="58" style="edgeStyle=none;html=1;entryX=0.723;entryY=0.983;entryDx=0;entryDy=0;entryPerimeter=0;exitX=0.259;exitY=0.067;exitDx=0;exitDy=0;exitPerimeter=0;" edge="1" parent="1" source="27" target="23">
                    <mxGeometry relative="1" as="geometry">
                        <mxPoint x="190" y="500" as="sourcePoint"/>
                        <mxPoint x="320" y="344" as="targetPoint"/>
                    </mxGeometry>
                </mxCell>
                <mxCell id="59" style="edgeStyle=none;html=1;entryX=0.5;entryY=0;entryDx=0;entryDy=0;entryPerimeter=0;exitX=0.145;exitY=0.855;exitDx=0;exitDy=0;exitPerimeter=0;" edge="1" parent="1" source="33" target="27">
                    <mxGeometry relative="1" as="geometry">
                        <mxPoint x="492.44000000000005" y="325.36" as="sourcePoint"/>
                        <mxPoint x="406.68000000000006" y="218.64" as="targetPoint"/>
                    </mxGeometry>
                </mxCell>
                <mxCell id="60" style="edgeStyle=none;html=1;entryX=1;entryY=0.5;entryDx=0;entryDy=0;entryPerimeter=0;exitX=0;exitY=0.5;exitDx=0;exitDy=0;exitPerimeter=0;" edge="1" parent="1" source="51" target="27">
                    <mxGeometry relative="1" as="geometry">
                        <mxPoint x="673.2" y="88.39999999999998" as="sourcePoint"/>
                        <mxPoint x="490" y="320" as="targetPoint"/>
                    </mxGeometry>
                </mxCell>
                <mxCell id="61" style="edgeStyle=none;html=1;entryX=0.855;entryY=0.855;entryDx=0;entryDy=0;entryPerimeter=0;exitX=0.145;exitY=0.145;exitDx=0;exitDy=0;exitPerimeter=0;" edge="1" parent="1" source="55" target="27">
                    <mxGeometry relative="1" as="geometry">
                        <mxPoint x="660" y="310" as="sourcePoint"/>
                        <mxPoint x="570" y="360" as="targetPoint"/>
                    </mxGeometry>
                </mxCell>
                <mxCell id="62" style="edgeStyle=none;html=1;entryX=1;entryY=0.3333333333333333;entryDx=0;entryDy=0;entryPerimeter=0;exitX=0;exitY=0.5;exitDx=0;exitDy=0;exitPerimeter=0;" edge="1" parent="1" source="27" target="13">
                    <mxGeometry relative="1" as="geometry">
                        <mxPoint x="333.20000000000005" y="380" as="sourcePoint"/>
                        <mxPoint x="150" y="611.6" as="targetPoint"/>
                    </mxGeometry>
                </mxCell>
            </root>
        </mxGraphModel>
    </diagram>
</mxfile>